<svg
    xmlns="http://www.w3.org/2000/svg"
    viewBox="0 0 16 16"
    id="vector">
    <path
        id="path"
        d="M 6.855 0 L 9.545 0.011 C 9.545 0.011 9.546 0.013 9.546 0.013 C 9.882 0.026 10.183 0.162 10.408 0.376 L 10.408 0.376 C 10.411 0.377 10.418 0.385 10.431 0.398 C 10.448 0.415 10.464 0.432 10.48 0.45 C 10.57 0.547 10.736 0.721 10.887 0.873 C 10.884 0.871 10.882 0.869 10.879 0.867 L 15.654 5.646 C 15.88 5.886 16.009 6.216 15.999 6.585 L 15.999 6.585 L 15.99 9.25 L 15.99 9.25 C 15.982 9.597 15.838 9.901 15.612 10.125 C 15.612 10.126 15.612 10.128 15.612 10.128 C 15.612 10.128 15.601 10.138 15.582 10.155 C 15.575 10.162 15.567 10.169 15.559 10.176 C 15.485 10.245 15.341 10.376 15.197 10.507 L 15.178 10.535 C 14.714 10.989 14.293 11.371 14.136 11.512 L 14.136 11.512 L 14.101 11.543 C 14.082 11.561 14.07 11.57 14.07 11.57 L 14.07 11.57 C 13.838 11.757 13.535 11.862 13.193 11.855 L 13.193 11.855 L 10.488 11.855 L 10.488 11.855 L 10.443 11.857 L 10.443 11.857 L 10.422 11.855 C 10.087 11.842 9.805 11.711 9.588 11.498 C 9.588 11.498 9.587 11.498 9.587 11.498 L 9.576 11.487 C 9.569 11.48 9.559 11.47 9.546 11.457 L 9.395 11.306 L 9.395 11.306 L 9.386 11.302 L 9.267 11.178 C 9.169 11.078 9.065 10.971 8.982 10.883 L 8.982 10.883 L 5.688 7.469 L 7.68 5.623 L 11.877 9.95 C 12.511 9.348 13.247 8.65 14.01 7.925 C 14.031 7.903 14.051 7.882 14.071 7.862 C 13.463 7.243 12.758 6.523 12.027 5.777 L 11.61 5.351 C 11.47 5.209 11.33 5.066 11.19 4.923 L 10.77 4.495 C 9.84 3.546 8.933 2.622 8.191 1.865 C 7.384 2.635 6.403 3.569 5.407 4.519 L 4.971 4.934 C 3.891 5.963 2.819 6.985 1.955 7.809 C 2.905 8.751 4.12 9.954 5.325 11.146 L 5.761 11.577 C 8.079 13.87 10.233 16 10.233 16 L 10.233 16 L 7.103 15.998 C 7.076 16 7.052 16 7.029 16 C 6.607 15.996 6.229 15.826 5.981 15.546 L 0.55 10.252 L 0.542 10.236 C 0.328 10.075 0.165 9.854 0.079 9.598 L 0.075 9.603 L 0.073 9.58 C 0.04 9.476 0.019 9.367 0.013 9.255 L 0.013 9.255 L 0.012 9.251 L 0.011 9.209 L 0.011 9.209 L 0.01 9.173 L 0.01 9.173 L 0.011 9.152 L 0 6.496 C 0.003 6.156 0.173 5.865 0.406 5.643 C 0.407 5.636 0.408 5.631 0.408 5.631 C 0.408 5.631 0.795 5.288 1.036 5.066 L 1.001 5.096 L 5.843 0.397 C 6.098 0.143 6.458 -0.007 6.855 0 L 6.855 0 Z"
        fill="#666666"
        stroke="#00000000"
        stroke-width="1"
        fill-rule="evenodd"/>
</svg>
